<svg width="100%" height="100%" xmlns="http://www.w3.org/2000/svg" xmlns:xlink="http://www.w3.org/1999/xlink">
    <style>
        .landscape,
        .portrait { visibility: hidden; }
        .square { visibility: visible; }

        @media (min-aspect-ratio: 1/2) {
            .square,
            .landscape { visibility: hidden; }
            .portrait { visibility: visible; }
        }

        @media (min-aspect-ratio: 2/1) {
            .portrait,
            .square { visibility: hidden; }
            .landscape { visibility: visible; }
        } 
    </style>
    <symbol id="icon" viewBox="0 0 400 400">
        <g id="logo"><g id="map" stroke-linecap="round" stroke-linejoin="round" stroke-width="2"><path id="background" d="M313.7 360.37c17.2 6.94 64.73 26.9 81.61 33.26 1.88.87 6.25.58 5.63-3.17-3.75-37.64-26.58-253.07-30.65-291.24-.62-5.51-2.5-6.37-6.88-7.82C350 86.81 317.44 76.07 304 71.73c-4.7-1.73-7.51-1.73-12.51 0C270.54 77.24 204.24 96 204.24 96s-69.09-19.38-90.68-24.88c-4.69-1.44-7.19-1.73-12.51.3-13.76 4-45.66 15-59.41 19.66-5.63 2-6.25 4.34-6.88 7.81C30.38 136.24 5.37 352.57 1 390.46c-.31 4.34 3.75 4 7.5 2.89 18.77-6.94 66.3-26 83.18-32.4 3.43-1.44 6.88-2.31 12.5 0 19.08 7.24 75.05 30.66 93.5 37.64a14.6 14.6 0 0 0 12.52 0c18.45-7.24 72.55-30.38 90.68-37.89a16.35 16.35 0 0 1 12.82-.29z" fill="#e7f2f0" stroke="#bdf9ed"/><path id="texture" d="M109.5 70.29a18.58 18.58 0 0 0-8.43 1.16c-13.76 4-45.66 15-59.42 19.66-5.63 2-6.25 4.34-6.88 7.81C30.39 136.24 5.37 352.57 1 390.46c-.31 4.34 3.75 4 7.5 2.89 18.77-6.94 66.3-26 83.18-32.4 2.5-.86 4.69-1.73 8.13-1.15l9.69-289.51zm186.68 0a31.28 31.28 0 0 0-4.05 1.17c-21 5.78-84.75 23.72-87.56 24.58v303.67a17.8 17.8 0 0 0 6.25-1.47c18.45-7.23 72.55-30.37 90.68-37.89a18.74 18.74 0 0 1 4.38-1.16l-9.71-288.9z" style="isolation:isolate" opacity=".57" fill="#bad8d2" stroke="#cce5e1"/></g><g id="road"><path id="middle" d="M147 378l54.72-50.61 55.66 51.48c11.57-4.92 22.83-9.83 31.9-13.6L89.48 180.81l96.94-89.66c-10-2.89-23.15-6.36-35.65-9.83L66.34 159.4 31.6 127.28c-1.25 11-2.81 24.29-4.37 39l151.35 140-63.52 58.75c8.75 3.47 20.33 8.09 31.9 13z" style="isolation:isolate" fill="#efc75e" opacity=".57"/><path id="extremities" d="M106.38 165.15l1.55-44.24-41.59 38.17-34.74-31.81c-1.25 11-2.81 24.29-4.37 39.05l76.92 71.14 1.25-41.93-15.6-14.47zM204.25 330l52.85 48.88c11.57-4.92 22.83-9.83 31.9-13.59l-84.75-78.39z" style="isolation:isolate" fill="#d3af5e" opacity=".57"/></g><path id="pin" d="M247.64 0c61.54 0 111.53 50 111.53 111.91 0 1.15-.38 30-10 50.38-22.68 52.71-77.29 108.44-95.37 126.52-4.62 4.23-6.54 5-12.31-.38-18.46-18.07-72.3-73.08-95-125.37-8.08-15.38-10.38-48.46-10.38-51.15C136.12 50 186.12 0 247.64 0z" fill="#f64a6b"/><g id="food"><path id="whitebackground" d="M340.26 94.38a38.61 38.61 0 0 0-38.58-38.59c-.84 0-1.69 0-2.54.08h-.07a2.17 2.17 0 0 1-1.93-1.43 53.2 53.2 0 0 0-49.35-33h-.28a53.2 53.2 0 0 0-49.35 33.05 2.17 2.17 0 0 1-1.93 1.43h-.07c-.85 0-1.7-.08-2.55-.08a38.57 38.57 0 0 0-4 76.94l4.67 14.59 11.57 36.27c1.64 5.1 6.45 9.41 13.9 12.48 1.09.45 2.24.86 3.43 1.25h.09a67.21 67.21 0 0 0 13.54 2.75h.05c3.59.41 16.49.74 21.41 0h.05a67.21 67.21 0 0 0 13.54-2.75h.14c1.19-.39 2.34-.79 3.44-1.25 7.48-3.06 12.3-7.37 13.9-12.48l11.62-36.25 4.67-14.59a38.48 38.48 0 0 0 34.63-38.42z" fill="#fff"/><path id="greencontour" d="M300.6 56.92c-.82 0-1.66 0-2.49.08H298a2.1 2.1 0 0 1-1.89-1.41 52.16 52.16 0 0 0-48.37-32.4h-.27a52.14 52.14 0 0 0-48.36 32.4 2.13 2.13 0 0 1-1.85 1.41h-.07c-.84 0-1.67-.08-2.49-.08a37.8 37.8 0 0 0-4 75.42l4.57 14.31 11.4 35.52c1.59 5 6.32 9.23 13.64 12.22 1.07.44 2.21.85 3.37 1.22h.08a65 65 0 0 0 13.26 2.7c3.52.41 16.17.73 21 0a65.11 65.11 0 0 0 13.27-2.7h.08c1.17-.37 2.3-.78 3.38-1.22 7.32-3 12.05-7.22 13.64-12.22l11.39-35.52 4.57-14.31a37.8 37.8 0 0 0-4-75.42zM227.51 190.1l-11.46-49a3.18 3.18 0 0 0-6.21 1.33v.12l10.48 44.76c-4.16-2.11-6.75-4.66-7.56-7.19l-11.38-35.52-3.91-12.22c3.9-.14 9.22-.71 13.26-2.46a45.17 45.17 0 0 0 8.94-5.76 33.09 33.09 0 0 1 3.4-2.45 41.77 41.77 0 0 0 6 2.75l5 67a59.47 59.47 0 0 1-6.49-1.4zm27.38 2.13c-2 .14-12.52.14-14.47 0l-4.83-65.75a54.18 54.18 0 0 0 11.91 1.29h.27a54.18 54.18 0 0 0 11.91-1.29zm39-47.55l-11.4 35.51c-.81 2.53-3.4 5.07-7.56 7.19l10.48-44.76a3.18 3.18 0 0 0-6.19-1.45l-11.43 48.93a59.51 59.51 0 0 1-6.49 1.41l5-67a45.25 45.25 0 0 0 6-2.75c.86.51 2.29 1.6 3.4 2.45a45.39 45.39 0 0 0 8.93 5.76c4.05 1.75 9.37 2.32 13.27 2.47zm8.1-18.53h-1.53c-2.64 0-9.23-.19-13.4-2a40.14 40.14 0 0 1-7.65-5c-3.14-2.4-5.22-4-7.44-4a4.15 4.15 0 0 0-2.12.58 43 43 0 0 1-22.08 5.64h-.27a43 43 0 0 1-22.08-5.64 4.15 4.15 0 0 0-2.12-.58c-2.22 0-4.3 1.59-7.44 4a40.14 40.14 0 0 1-7.65 5c-4.17 1.8-10.76 2-13.4 2h-1.51a31.46 31.46 0 0 1 1.4-62.88c.67 0 2.44.09 2.64.09a8.48 8.48 0 0 0 7.67-5.3 45.81 45.81 0 0 1 42.51-28.49h.27A45.79 45.79 0 0 1 290.25 58a8.45 8.45 0 0 0 7.66 5.3c.19 0 2-.09 2.64-.09a31.46 31.46 0 0 1 1.4 62.88z" fill="#529e8f" stroke="#fff" stroke-linecap="round" stroke-linejoin="round" stroke-width="2"/></g></g>
    </symbol>

    <symbol id="label" viewBox="0 0 650 260">
        <path d="M109.48 148.23v96H98.71v-96L16.4 26.65h12.51l75.33 111.11 75-111.11h12.51zM312.79 244.21h-9.6v-27.05c-6.69 15.42-24.14 29.67-48.87 29.67-16 0-29.08-5.23-39-16-9.6-10.76-14.54-24.72-14.54-41.88v-91H211v89.88c0 29.37 16.87 49.15 44.5 49.15 14.25 0 25.59-4.94 34-14.54 8.73-9.6 13.09-21.53 13.09-35.2V97.91h10.18zM381.14 244.21H371v-226h10.18zM449.78 244.21H439.6v-226h10.18zM522.5 40.32a9 9 0 0 1-9 8.72 8.75 8.75 0 0 1-8.73-8.72 8.88 8.88 0 1 1 17.75 0zm-4.08 203.89h-10.18V97.91h10.18zM634.77 234.32v9.6a91.06 91.06 0 0 1-17.45 1.46c-23.27 0-37.82-13.67-37.82-43l.29-95.4h-27.92v-9h27.92l.29-52.65h10.48l-.3 52.65h43.93v9h-43.93l-.58 93.94c0 23.57 9.6 35.2 29.09 35.2a70.63 70.63 0 0 0 16-1.8z"/>
    </symbol>

    <symbol id="portrait" viewBox="0 0 550 750">
        <use xlink:href="#icon" x="0" y="0" width="550" height="550"/>
        <use xlink:href="#label" x="25" y="550" width="500" height="200"/>
    </symbol>

    <symbol id="landscape" viewBox="0 0 1070 400">
        <use xlink:href="#icon" x="0" y="0" width="400" height="400"/>
        <use xlink:href="#label" x="420" y="70" width="650" height="260"/>
    </symbol>    

    <use class="square" xlink:href="#icon" x="5%" y="5%" width="90%" height="90%"/>
    <use class="portrait" xlink:href="#portrait" x="5%" y="5%" width="90%" height="90%"/>
    <use class="landscape" xlink:href="#landscape" x="5%" y="5%" width="90%" height="90%"/>
</svg>